<svg width="31" height="42" viewBox="0 0 31 42" fill="none" xmlns="http://www.w3.org/2000/svg">
<path d="M23.1094 0.679688H5.20312C2.99399 0.679688 1.20312 2.47055 1.20312 4.67969V36.6797C1.20312 38.8888 2.99399 40.6797 5.20313 40.6797H26C28.2091 40.6797 30 38.8888 30 36.6797V7.57031L23.1094 0.679688Z" fill="#222221"/>
<path d="M23.1094 0.679688H5.20312C2.99399 0.679688 1.20312 2.47055 1.20312 4.67969V36.6797C1.20312 38.8888 2.99399 40.6797 5.20313 40.6797H26C28.2091 40.6797 30 38.8888 30 36.6797V7.57031M23.1094 0.679688L30 7.57031M23.1094 0.679688V7.57031H30M8.92969 15.2109H23.5391M8.92969 19.2109H23.5391M8.92969 23.2109H23.5391M8.92969 27.2109H16.2344" stroke="white" stroke-width="0.935881"/>
</svg>
