<svg width="31" height="42" viewBox="0 0 31 42" fill="none" xmlns="http://www.w3.org/2000/svg">
<path d="M23.0078 0.679688H5.10156C2.89242 0.679688 1.10156 2.47055 1.10156 4.67969V36.6797C1.10156 38.8888 2.89242 40.6797 5.10156 40.6797H25.8984C28.1076 40.6797 29.8984 38.8888 29.8984 36.6797V7.57031L23.0078 0.679688Z" fill="#222221"/>
<path d="M21.5586 20.2693C22.2253 20.6542 22.2253 21.6164 21.5586 22.0013L12.0781 27.4749C11.4115 27.8598 10.5781 27.3786 10.5781 26.6088L10.5781 15.6617C10.5781 14.8919 11.4115 14.4108 12.0781 14.7957L21.5586 20.2693Z" fill="#222221"/>
<path d="M23.0078 0.679688H5.10156C2.89242 0.679688 1.10156 2.47055 1.10156 4.67969V36.6797C1.10156 38.8888 2.89242 40.6797 5.10156 40.6797H25.8984C28.1076 40.6797 29.8984 38.8888 29.8984 36.6797V7.57031M23.0078 0.679688L29.8984 7.57031M23.0078 0.679688V7.57031H29.8984M10.5781 15.6617L10.5781 26.6088C10.5781 27.3786 11.4115 27.8598 12.0781 27.4749L21.5586 22.0013C22.2253 21.6164 22.2253 20.6542 21.5586 20.2693L12.0781 14.7957C11.4115 14.4108 10.5781 14.8919 10.5781 15.6617Z" stroke="white" stroke-width="0.935881"/>
</svg>
