<svg width="41" height="36" viewBox="0 0 41 36" fill="none" xmlns="http://www.w3.org/2000/svg">
<mask id="path-1-inside-1_680_2859" fill="white">
<path fill-rule="evenodd" clip-rule="evenodd" d="M15.0154 8.60927C16.5134 7.83184 18.2152 7.39258 20.0195 7.39258C21.822 7.39258 23.5221 7.83094 25.019 8.60687L29.5856 0.697266L30.4516 1.19727L25.8847 9.10745C28.7677 10.9565 30.7209 14.1287 30.8869 17.767H40.0226V18.767H30.8874C30.7241 22.409 28.7701 25.585 25.8847 27.4356L30.4516 35.3457L29.5856 35.8457L25.019 27.9362C23.5221 28.7121 21.822 29.1505 20.0195 29.1505C18.2151 29.1505 16.5134 28.7112 15.0153 27.9337L10.4491 35.8426L9.58312 35.3426L14.1499 27.4327C11.2669 25.5818 9.3148 22.4072 9.15164 18.767H0.0175781V17.767H9.15205C9.31805 14.1306 11.2693 10.9597 14.1499 9.11028L9.58312 1.20038L10.4491 0.700376L15.0154 8.60927Z"/>
</mask>
<path d="M15.0154 8.60927L14.1493 9.10927L14.6274 9.93726L15.476 9.49687L15.0154 8.60927ZM25.019 8.60687L24.5588 9.49468L25.4072 9.93446L25.885 9.10687L25.019 8.60687ZM29.5856 0.697266L30.0856 -0.168759L29.2196 -0.66876L28.7196 0.197266L29.5856 0.697266ZM30.4516 1.19727L31.3177 1.69727L31.8177 0.831241L30.9516 0.331241L30.4516 1.19727ZM25.8847 9.10745L25.0187 8.60745L24.5415 9.43398L25.3448 9.94921L25.8847 9.10745ZM30.8869 17.767L29.888 17.8126L29.9316 18.767H30.8869V17.767ZM40.0226 17.767H41.0226V16.767H40.0226V17.767ZM40.0226 18.767V19.767H41.0226V18.767H40.0226ZM30.8874 18.767V17.767H29.9312L29.8884 18.7222L30.8874 18.767ZM25.8847 27.4356L25.3449 26.5938L24.5415 27.109L25.0187 27.9356L25.8847 27.4356ZM30.4516 35.3457L30.9516 36.2117L31.8177 35.7117L31.3177 34.8457L30.4516 35.3457ZM29.5856 35.8457L28.7196 36.3457L29.2196 37.2117L30.0856 36.7117L29.5856 35.8457ZM25.019 27.9362L25.8851 27.4362L25.4072 26.6086L24.5588 27.0483L25.019 27.9362ZM15.0153 27.9337L15.4759 27.0462L14.6273 26.6058L14.1493 27.4337L15.0153 27.9337ZM10.4491 35.8426L9.94914 36.7086L10.8152 37.2086L11.3152 36.3426L10.4491 35.8426ZM9.58312 35.3426L8.71709 34.8426L8.21709 35.7086L9.08312 36.2086L9.58312 35.3426ZM14.1499 27.4327L15.0159 27.9327L15.4929 27.1066L14.6901 26.5912L14.1499 27.4327ZM9.15164 18.767L10.1506 18.7222L10.1078 17.767H9.15164V18.767ZM0.0175781 18.767H-0.982422V19.767H0.0175781V18.767ZM0.0175781 17.767V16.767H-0.982422V17.767H0.0175781ZM9.15205 17.767V18.767H10.1074L10.151 17.8126L9.15205 17.767ZM14.1499 9.11028L14.6902 9.95177L15.4929 9.4364L15.0159 8.61028L14.1499 9.11028ZM9.58312 1.20038L9.08312 0.334351L8.2171 0.834351L8.7171 1.70038L9.58312 1.20038ZM10.4491 0.700376L11.3152 0.200376L10.8152 -0.665649L9.94915 -0.165649L10.4491 0.700376ZM15.476 9.49687C16.8351 8.79155 18.3792 8.39258 20.0195 8.39258V6.39258C18.0511 6.39258 16.1917 6.87214 14.5547 7.72168L15.476 9.49687ZM20.0195 8.39258C21.6581 8.39258 23.2007 8.79072 24.5588 9.49468L25.4792 7.71905C23.8434 6.87115 21.9859 6.39258 20.0195 6.39258V8.39258ZM25.885 9.10687L30.4516 1.19727L28.7196 0.197266L24.153 8.10687L25.885 9.10687ZM29.0856 1.56329L29.9516 2.06329L30.9516 0.331241L30.0856 -0.168759L29.0856 1.56329ZM29.5856 0.697266L25.0187 8.60745L26.7507 9.60745L31.3177 1.69727L29.5856 0.697266ZM25.3448 9.94921C27.9654 11.6299 29.7373 14.5109 29.888 17.8126L31.8859 17.7214C31.7044 13.7465 29.57 10.2831 26.4245 8.2657L25.3448 9.94921ZM30.8869 18.767H40.0226V16.767H30.8869V18.767ZM39.0226 17.767V18.767H41.0226V17.767H39.0226ZM40.0226 17.767H30.8874V19.767H40.0226V17.767ZM29.8884 18.7222C29.7402 22.0273 27.9675 24.9117 25.3449 26.5938L26.4246 28.2773C29.5727 26.2583 31.708 22.7907 31.8864 18.8118L29.8884 18.7222ZM25.0187 27.9356L29.5856 35.8457L31.3177 34.8457L26.7507 26.9356L25.0187 27.9356ZM29.9516 34.4797L29.0856 34.9797L30.0856 36.7117L30.9516 36.2117L29.9516 34.4797ZM30.4516 35.3457L25.8851 27.4362L24.153 28.4362L28.7196 36.3457L30.4516 35.3457ZM24.5588 27.0483C23.2007 27.7523 21.6581 28.1505 20.0195 28.1505V30.1505C21.9859 30.1505 23.8435 29.6719 25.4792 28.824L24.5588 27.0483ZM20.0195 28.1505C18.3792 28.1505 16.8351 27.7515 15.4759 27.0462L14.5547 28.8213C16.1917 29.6709 18.0511 30.1505 20.0195 30.1505V28.1505ZM14.1493 27.4337L9.58312 35.3426L11.3152 36.3426L15.8813 28.4337L14.1493 27.4337ZM10.9491 34.9766L10.0831 34.4766L9.08312 36.2086L9.94914 36.7086L10.9491 34.9766ZM10.4491 35.8426L15.0159 27.9327L13.2838 26.9327L8.71709 34.8426L10.4491 35.8426ZM14.6901 26.5912C12.0696 24.9088 10.2987 22.0256 10.1506 18.7222L8.15264 18.8118C8.3309 22.7887 10.4642 26.2548 13.6096 28.2742L14.6901 26.5912ZM9.15164 17.767H0.0175781V19.767H9.15164V17.767ZM1.01758 18.767V17.767H-0.982422V18.767H1.01758ZM0.0175781 18.767H9.15205V16.767H0.0175781V18.767ZM10.151 17.8126C10.3017 14.5126 12.0718 11.6328 14.6902 9.95177L13.6096 8.26878C10.4668 10.2866 8.33445 13.7485 8.15309 17.7214L10.151 17.8126ZM15.0159 8.61028L10.4491 0.700376L8.7171 1.70038L13.2839 9.61028L15.0159 8.61028ZM10.0831 2.0664L10.9491 1.5664L9.94915 -0.165649L9.08312 0.334351L10.0831 2.0664ZM9.58312 1.20038L14.1493 9.10927L15.8814 8.10927L11.3152 0.200376L9.58312 1.20038Z" fill="white" mask="url(#path-1-inside-1_680_2859)"/>
</svg>
