<svg width="618" height="118" viewBox="0 0 618 118" fill="none" xmlns="http://www.w3.org/2000/svg">
<circle cx="59.3496" cy="59.4512" r="58.4746" fill="white"/>
<g clip-path="url(#clip0_5_4004)">
<path d="M199.395 36.0554C194.365 29.3554 188.435 28.7054 185.345 28.7054C176.325 28.7054 173.485 34.3754 173.485 38.7654C173.485 40.8254 174.125 42.7654 176.195 44.5654C178.255 46.4954 181.095 47.5354 186.505 49.4654C193.205 51.7854 199.525 54.1054 203.905 58.1054C207.775 61.5854 211.255 67.3854 211.255 76.1554C211.255 92.9154 199.135 104.385 181.345 104.385C165.485 104.385 156.205 94.7154 151.695 88.1454L162.655 77.7054C166.785 86.0854 174.645 89.1754 180.705 89.1754C188.315 89.1754 193.985 84.5354 193.985 77.3154C193.985 74.2254 192.955 71.7754 190.635 69.5854C187.415 66.6154 182.255 64.9454 177.355 63.2654C172.845 61.7154 167.425 59.6554 163.045 55.7854C160.205 53.3354 156.215 48.5654 156.215 39.7954C156.205 27.1554 164.715 14.5254 183.795 14.5254C189.205 14.5254 199.395 15.5554 208.165 24.5854L199.395 36.0554Z" fill="white"/>
<path d="M313.616 59.5154C313.616 85.6854 294.796 104.375 267.726 104.375C240.656 104.375 221.836 85.6854 221.836 59.5154C221.836 33.3454 240.656 14.5254 267.726 14.5254C294.796 14.5254 313.616 33.3454 313.616 59.5154ZM296.346 59.5154C296.346 42.1154 284.486 29.7354 267.726 29.7354C250.966 29.7354 239.106 42.1154 239.106 59.5154C239.106 76.9154 250.966 89.1654 267.726 89.1654C284.486 89.1654 296.346 76.9154 296.346 59.5154Z" fill="white"/>
<path d="M345.846 16.4551V70.4751C345.846 77.0451 348.036 81.0451 349.976 83.2351C352.426 86.1951 356.936 89.1651 363.636 89.1651C370.336 89.1651 374.856 86.1951 377.296 83.2351C379.226 81.0451 381.426 77.0451 381.426 70.4751V16.4551H398.186V69.0551C398.186 77.1751 396.896 85.4251 391.736 92.0051C385.546 100.125 374.716 104.385 363.636 104.385C352.556 104.385 341.716 100.135 335.536 92.0051C330.376 85.4351 329.086 77.1751 329.086 69.0551V16.4551H345.846Z" fill="white"/>
<path d="M442.665 16.4551C454.525 16.4551 460.585 19.5451 464.585 22.9051C471.155 28.4451 473.095 35.7951 473.095 42.2451C473.095 50.6251 469.745 57.9751 463.035 62.4851C460.845 64.0351 457.745 65.4551 453.625 66.2251L480.435 102.455H459.555L437.745 69.6251C437.035 68.5551 435.825 67.9051 434.545 67.9051V102.455H417.785V16.4551H442.665ZM434.545 56.0351H439.315C442.535 56.0351 455.815 55.6451 455.815 43.0151C455.815 30.3851 442.665 30.1251 439.575 30.1251H434.545V56.0351Z" fill="white"/>
<path d="M617.356 30.8951H586.416V50.1051H616.066V64.5451H586.416V88.0051H617.356V102.445H569.656V16.4551H617.356V30.8951Z" fill="white"/>
<path d="M546.776 85.8854C542.986 88.0054 538.686 89.1654 534.076 89.1654C519.636 89.1654 504.946 78.8554 504.946 59.7754C504.946 43.9154 516.166 29.7354 533.436 29.7354C535.656 29.7354 541.306 30.0854 547.216 33.5854L553.996 19.7154C546.206 15.5454 539.056 14.5254 533.046 14.5254C520.796 14.5254 510.096 17.7454 501.466 25.8654C494.116 32.6954 487.676 43.9154 487.676 59.5154C487.676 72.1454 491.546 82.8454 501.466 92.3854C508.686 99.2154 517.836 104.375 532.916 104.375C541.806 104.375 548.446 102.245 553.526 99.6854L546.776 85.8854Z" fill="white"/>
</g>
<defs>
<clipPath id="clip0_5_4004">
<rect width="465.66" height="89.85" fill="white" transform="translate(151.695 14.5254)"/>
</clipPath>
</defs>
</svg>
