<svg width="32" height="22" viewBox="0 0 32 22" fill="none" xmlns="http://www.w3.org/2000/svg">
<path d="M16.293 0.753906H1.29297V5.75391M16.293 0.753906V5.75391M16.293 0.753906H31.293V5.75391M16.293 5.75391H1.29297M16.293 5.75391H31.293M16.293 5.75391V10.7539M1.29297 5.75391V10.7539M31.293 5.75391V10.7539M16.293 10.7539H1.29297M16.293 10.7539H31.293M16.293 10.7539V15.7539M1.29297 10.7539V15.7539M31.293 10.7539V15.7539M16.293 15.7539H1.29297M16.293 15.7539H31.293M16.293 15.7539V20.7539M1.29297 15.7539V20.7539H16.293M31.293 15.7539V20.7539H16.293" stroke="black"/>
</svg>
