<svg width="57" height="42" viewBox="0 0 57 42" fill="none" xmlns="http://www.w3.org/2000/svg">
<path d="M4.94908 12.567C5.28455 10.6536 6.94634 9.25781 8.88898 9.25781H52.1166C54.602 9.25781 56.4857 11.5005 56.0565 13.9486L51.9494 37.3743C51.6139 39.2878 49.9521 40.6836 48.0095 40.6836H4.78185C2.29645 40.6836 0.412734 38.4409 0.841941 35.9928L4.94908 12.567Z" fill="#222221"/>
<path d="M49.5915 9.25781V8.5025C49.5915 6.5518 48.0101 4.97044 46.0594 4.97044H22.6564C21.2122 4.97044 19.8572 4.27245 19.0187 3.09668L18.6857 2.62971C18.0228 1.70023 16.9516 1.14844 15.8099 1.14844H4.02034C2.06964 1.14844 0.488281 2.7298 0.488281 4.6805V36.6805C0.488281 37.9125 1.11903 38.9971 2.07521 39.6292C2.78226 40.2803 3.72796 40.6836 4.78185 40.6836M48.0464 40.6834C48.0341 40.6835 48.0218 40.6836 48.0095 40.6836M48.0095 40.6836H4.78185M48.0095 40.6836C49.9521 40.6836 51.6139 39.2878 51.9494 37.3743L56.0565 13.9486C56.4857 11.5005 54.602 9.25781 52.1166 9.25781H8.88898C6.94634 9.25781 5.28455 10.6536 4.94908 12.567L0.841941 35.9928C0.412734 38.4409 2.29645 40.6836 4.78185 40.6836" stroke="white" stroke-width="0.935881"/>
</svg>
