<svg width="32" height="32" viewBox="0 0 32 32" fill="none" xmlns="http://www.w3.org/2000/svg">
<path d="M15.7873 24.0682C15.7873 24.3443 16.0111 24.5682 16.2873 24.5682C16.5634 24.5682 16.7873 24.3443 16.7873 24.0682H15.7873ZM16.7873 8.21359C16.7873 7.93745 16.5634 7.71359 16.2873 7.71359C16.0111 7.71359 15.7873 7.93745 15.7873 8.21359H16.7873ZM30.7051 16.0215C30.7051 24.0296 24.2132 30.5215 16.2051 30.5215V31.5215C24.7655 31.5215 31.7051 24.5819 31.7051 16.0215H30.7051ZM16.2051 30.5215C8.19695 30.5215 1.70508 24.0296 1.70508 16.0215H0.705078C0.705078 24.5819 7.64466 31.5215 16.2051 31.5215V30.5215ZM1.70508 16.0215C1.70508 8.01336 8.19695 1.52148 16.2051 1.52148V0.521484C7.64466 0.521484 0.705078 7.46107 0.705078 16.0215H1.70508ZM16.2051 1.52148C24.2132 1.52148 30.7051 8.01336 30.7051 16.0215H31.7051C31.7051 7.46107 24.7655 0.521484 16.2051 0.521484V1.52148ZM15.7873 13.2596V24.0682H16.7873V13.2596H15.7873ZM16.7873 10.724V8.21359H15.7873V10.724H16.7873Z" fill="black"/>
</svg>
