<svg width="32" height="36" viewBox="0 0 32 36" fill="none" xmlns="http://www.w3.org/2000/svg">
<path d="M31.1211 26.7848L24.281 22.8356M1.12379 9.4658L7.96339 13.4146M1.12109 26.7848L7.96112 22.8357M31.1184 9.4658L24.2788 13.4147M16.1211 8.70769C19.6065 8.70769 22.6497 10.6007 24.2788 13.4147M16.1211 8.70769C12.6357 8.70769 9.59244 10.6007 7.96339 13.4146M16.1211 8.70769L16.1245 0.808593M16.1211 27.5465C19.6081 27.5465 22.6525 25.6518 24.281 22.8356M16.1211 27.5465C12.6341 27.5465 9.58962 25.6518 7.96112 22.8357M16.1211 27.5465L16.1245 35.4465M24.2788 13.4147C25.0812 14.8008 25.5405 16.4103 25.5405 18.1271C25.5405 19.8423 25.082 21.4504 24.281 22.8356M7.96112 22.8357C7.16008 21.4505 6.70164 19.8423 6.70164 18.1271C6.70164 16.4103 7.16095 14.8007 7.96339 13.4146" stroke="white"/>
</svg>
